# xmcd CD database file
#
# Track frame offsets:
#	150
#	24190
#	48383
#	77654
#	105081
#	139223
#
# Disc length: 2214 seconds
#
# Revision: 0
# Processed by: cddbd v1.5.1PL2 Copyright (c) Steve Scherf et al.
# Submitted via: CDex 1.50
#
DISCID=3b08a406
DTITLE=Manny Albam - Ernie Wilkins and his Orchestra - The Dum Suite
DYEAR=1956
DGENRE=Jazz
TTITLE0=First Movement - Dancers on Drums
TTITLE1=Second Movement: Bristling
TTITLE2=Third Movement: Chant of the Witch Doctors
TTITLE3=Fourth Movement: Skinning the Valves
TTITLE4=Fifth Movement: Cymbalisms
TTITLE5=Sixth Movement: The Octopus
EXTD=YEAR: 1956
EXTT0=
EXTT1=
EXTT2=
EXTT3=
EXTT4=
EXTT5=
PLAYORDER=
